<?xml version="1.0" encoding="utf-8"?>
<!-- Generator: Adobe Illustrator 27.0.0, SVG Export Plug-In . SVG Version: 6.00 Build 0)  -->
<svg version="1.1" id="图层_1" xmlns="http://www.w3.org/2000/svg" xmlns:xlink="http://www.w3.org/1999/xlink" x="0px" y="0px"
	 viewBox="0 0 131.4 66.2" style="enable-background:new 0 0 131.4 66.2;" xml:space="preserve">
<style type="text/css">
	.st0{fill-rule:evenodd;clip-rule:evenodd;fill:#1296AF;}
	.st1{fill-rule:evenodd;clip-rule:evenodd;fill:#221714;}
</style>
<path class="st0" d="M97.8,14.3h6.1v6.1h-6.1V14.3z M103.9,47.9V54c-3.4,0-6.1-2.7-6.1-6.1l0,0V23.5h6.1V47.9z"/>
<path class="st0" d="M45.8,17.4v-6.1H33.6c-3.4,0-6.1,2.7-6.1,6.1V48c0,3.4,2.7,6.1,6.1,6.1l0,0h12.2V48h-6.1
	c-3.4,0-6.1-2.7-6.1-6.1V17.4H45.8z"/>
<path class="st0" d="M67.2,23.5v6.1H55v12.2c0,3.4,2.7,6.1,6.1,6.1l0,0h6.1V54H55c-3.4,0-6.1-2.7-6.1-6.1l0,0V29.6
	c0-3.4,2.7-6.1,6.1-6.1H67.2z"/>
<path class="st0" d="M94.7,47.9V54c-3.4,0-6.1-2.7-6.1-6.1l0,0V35.7c0-3.4-2.7-6.1-6.1-6.1l0,0h-6.1V54c-3.4,0-6.1-2.7-6.1-6.1l0,0
	V11.2c3.4,0,6.1,2.7,6.1,6.1v6.1h12.2c3.4,0,6.1,2.7,6.1,6.1l0,0V47.9z"/>
<path class="st0" d="M125.3,23.5c3.4,0,6.1,2.7,6.1,6.1v18.3c0,3.4-2.7,6.1-6.1,6.1l0,0h-12.2v12.2c-3.4,0-6.1-2.7-6.1-6.1V23.5
	H125.3z M125.3,29.6h-12.2v12.2c0,3.4,2.7,6.1,6.1,6.1h6.1V29.6z"/>
<path class="st0" d="M6.1,41.8c0,3.4,2.7,6.1,6.1,6.1h6.1V11.2h6.1v36.7c0,3.4-2.7,6.1-6.1,6.1l0,0H6.1C2.7,54,0,51.3,0,47.9l0,0
	V11.2h6.1V41.8z"/>
<path class="st1" d="M45.8,41.3L45,40c-4.9-8.5-2-19.3,6.5-24.3L74.6,2.4C82.4-2.1,92.4,0,97.8,7.3c-6-5.6-15-6.4-21.9-2.1L53,19.6
	C45.7,24.2,42.7,33.3,45.8,41.3z"/>
</svg>
